#!OML:ASF H:\Martial Arts Walks\Project 1\Capture day 1\Session 1\male.ASF
:FULLY-SPECIFIED
:DEGREES
1427
root -4.40224 13.435 34.0835 -170.225 -164.006 166.596
lowerback 7.56119 2.30912 4.92074
upperback -1.86745 3.7847 3.72179
thorax -6.14477 1.75024 0.657124
lowerneck -3.63915 -1.99689 -5.40114
upperneck 9.70892 -2.93815 6.51897
head 3.6569 -1.36017 2.74253
rclavicle -8.44835e-015 6.75868e-015
rhumerus -45.8523 13.7872 -76.7597
rradius 49.1538
rwrist 5.3891
rhand -12.6323 -34.4753
rfingers 7.12502
rthumb 13.4477 -64.0212
lclavicle -8.44835e-015 6.75868e-015
lhumerus -21.5192 -7.71162 82.8466
lradius 85.3087
lwrist 22.2887
lhand -29.257 11.4608
lfingers 7.12502
lthumb -2.59991 41.4247
rfemur 4.18079 -9.60753 21.1868
rtibia 48.6843
rfoot -35.0154 -33.7539
rtoes -28.2784
lfemur -70.0459 25.6407 -10.1928
ltibia 76.3767
lfoot -12.6722 -6.97378
ltoes 8.34142
1428
root -4.39542 13.4344 34.0788 -170.385 -163.742 166.838
lowerback 7.74272 2.3339 4.55372
upperback -1.8348 3.79307 3.7081
thorax -6.23515 1.76643 0.837868
lowerneck -4.29904 -2.78073 -5.77278
upperneck 11.0986 -4.00891 6.56136
head 4.26225 -1.88174 2.75669
rclavicle 1.31695e-014 3.93594e-014
rhumerus -45.6518 12.9011 -76.1922
rradius 48.0545
rwrist 5.53372
rhand -13.0829 -34.7217
rfingers 7.12502
rthumb 13.0133 -64.2958
lclavicle 1.31695e-014 3.93594e-014
lhumerus -21.9164 -7.12054 82.6351
lradius 83.805
lwrist 21.8881
lhand -29.6638 12.8066
lfingers 7.12502
lthumb -2.99275 42.7654
rfemur 4.05426 -9.4092 20.8796
rtibia 49.0259
rfoot -35.1619 -33.7126
rtoes -27.9772
lfemur -69.8172 25.6822 -10.357
ltibia 76.3278
lfoot -12.6668 -6.80908
ltoes 7.86092
1429
root -4.38923 13.4331 34.0709 -170.566 -163.474 167.027
lowerback 8.03601 2.31335 4.14865
upperback -1.79596 3.74566 3.73903
thorax -6.38924 1.75653 1.08943
lowerneck -5.04621 -3.48053 -6.66684
upperneck 12.6541 -4.99784 7.2017
head 4.96448 -2.34946 3.03394
rclavicle 2.5022e-014 4.37326e-014
rhumerus -45.437 12.1455 -75.6912
rradius 47.0627
rwrist 5.44872
rhand -13.4993 -35.1227
rfingers 7.12502
rthumb 12.6119 -64.722
lclavicle 2.5022e-014 4.37326e-014
lhumerus -22.3448 -6.38907 82.346
lradius 82.2118
lwrist 21.6219
lhand -29.9397 12.9247
lfingers 7.12502
lthumb -3.25925 42.8795
rfemur 3.94098 -9.15521 20.6611
rtibia 49.3724
rfoot -35.3593 -33.6737
rtoes -27.563
lfemur -69.5647 25.7441 -10.4448
ltibia 76.2766
lfoot -12.6092 -6.68698
ltoes 7.56733
1430
root -4.38284 13.4364 34.0646 -170.761 -163.213 167.392
lowerback 8.30081 2.27746 3.57837
upperback -1.73663 3.6516 3.71726
thorax -6.51089 1.7304 1.38648
lowerneck -5.58784 -4.31091 -7.35335
upperneck 13.8722 -6.15227 7.59692
head 5.55109 -2.90512 3.18092
rclavicle 2.00524e-014 -6.36111e-015
rhumerus -45.1686 11.4685 -75.2496
rradius 46.1399
rwrist 5.12726
rhand -14.2444 -35.4059
rfingers 7.12502
rthumb 11.8935 -65.0481
lclavicle 2.00524e-014 -6.36111e-015
lhumerus -22.7009 -5.60313 82.0336
lradius 80.5282
lwrist 21.3244
lhand -30.1954 13.063
lfingers 7.12502
lthumb -3.50615 43.0139
rfemur 3.8159 -8.97514 20.2329
rtibia 49.6966
rfoot -35.5356 -33.5828
rtoes -27.27
lfemur -69.3081 25.7416 -10.7238
ltibia 76.2039
lfoot -12.5604 -6.53792
ltoes 7.33202
1431
root -4.37556 13.4389 34.0665 -170.856 -162.968 167.651
lowerback 8.27367 2.24453 3.20737
upperback -1.60176 3.55729 3.68511
thorax -6.37138 1.70018 1.57512
lowerneck -5.69141 -5.27749 -8.07481
upperneck 14.3864 -7.49449 8.08069
head 5.88192 -3.55903 3.34338
rclavicle -1.62258e-014 1.19271e-014
rhumerus -44.7987 10.6189 -74.7359
rradius 45.3135
rwrist 5.05283
rhand -14.3386 -35.925
rfingers 7.12502
rthumb 11.8026 -65.5724
lclavicle -1.62258e-014 1.19271e-014
lhumerus -22.9722 -4.85152 81.6592
lradius 78.8704
lwrist 20.9837
lhand -30.6064 13.8542
lfingers 7.12502
lthumb -3.90304 43.7982
rfemur 3.67969 -8.85397 19.8679
rtibia 50.0053
rfoot -35.6415 -33.5492
rtoes -27.0737
lfemur -69.1345 25.7824 -10.9336
ltibia 76.1725
lfoot -12.5555 -6.39519
ltoes 6.79464
1432
root -4.36884 13.4405 34.069 -170.96 -162.66 167.878
lowerback 8.26417 2.23774 2.88204
upperback -1.51386 3.50738 3.65816
thorax -6.28945 1.68862 1.73665
lowerneck -5.01223 -6.22903 -8.89011
upperneck 14.0446 -8.83097 8.68441
head 5.83703 -4.23187 3.57359
rclavicle 3.58806e-014 5.96354e-015
rhumerus -44.6285 9.91817 -74.3056
rradius 44.5865
rwrist 4.7942
rhand -14.8512 -36.3239
rfingers 7.12502
rthumb 11.3083 -65.999
lclavicle 3.58806e-014 5.96354e-015
lhumerus -23.3057 -4.15833 81.2803
lradius 77.0728
lwrist 20.6518
lhand -30.9427 13.8971
lfingers 7.12502
lthumb -4.22785 43.8349
rfemur 3.56059 -8.69307 19.5134
rtibia 50.3137
rfoot -35.7205 -33.5033
rtoes -26.9738
lfemur -68.9374 25.895 -11.0908
ltibia 76.1624
lfoot -12.5317 -6.28038
ltoes 6.56917
